{
  "accessors": [
    {
      "bufferView": 2,
      "componentType": 5126,
      "count": 1780,
      "max": [
        0.9959130883216858,
        1.4019216299057007,
        1.235276460647583
      ],
      "min": [
        -0.9299465417861938,
        -1.7944142818450928,
        -1.962038278579712
      ],
      "type": "VEC3"
    },
    {
      "bufferView": 2,
      "byteOffset": 21360,
      "componentType": 5126,
      "count": 1780,
      "max": [
        1.0,
        1.0,
        1.0
      ],
      "min": [
        -1.0,
        -0.9999574422836304,
        -1.0
      ],
      "type": "VEC3"
    },
    {
      "bufferView": 3,
      "componentType": 5126,
      "count": 1780,
      "max": [
        1.0,
        1.0,
        0.9999701976776123,
        1.0
      ],
      "min": [
        -0.9982575178146362,
        -0.9992753267288208,
        -0.9998727440834045,
        -1.0
      ],
      "type": "VEC4"
    },
    {
      "bufferView": 1,
      "componentType": 5126,
      "count": 1780,
      "max": [
        0.9989972114562988,
        0.9989610314369202
      ],
      "min": [
        0.0010376143036410213,
        0.001036676112562418
      ],
      "type": "VEC2"
    },
    {
      "bufferView": 0,
      "componentType": 5125,
      "count": 8268,
      "type": "SCALAR"
    },
    {
      "bufferView": 2,
      "byteOffset": 42720,
      "componentType": 5126,
      "count": 12,
      "max": [
        0.3696989417076111,
        -0.469143807888031,
        1.041273832321167
      ],
      "min": [
        0.25031808018684387,
        -0.7466529607772827,
        0.7052533626556396
      ],
      "type": "VEC3"
    },
    {
      "bufferView": 2,
      "byteOffset": 42864,
      "componentType": 5126,
      "count": 12,
      "max": [
        0.9471828937530518,
        0.07500782608985901,
        0.3117986023426056
      ],
      "min": [
        -0.9471830129623413,
        -0.0750073716044426,
        -0.31179851293563843
      ],
      "type": "VEC3"
    },
    {
      "bufferView": 1,
      "byteOffset": 14240,
      "componentType": 5126,
      "count": 12,
      "max": [
        0.2554914057254791,
        0.7022136449813843
      ],
      "min": [
        0.1915399134159088,
        0.6576482653617859
      ],
      "type": "VEC2"
    },
    {
      "bufferView": 0,
      "byteOffset": 33072,
      "componentType": 5125,
      "count": 18,
      "type": "SCALAR"
    },
    {
      "bufferView": 2,
      "byteOffset": 43008,
      "componentType": 5126,
      "count": 20,
      "max": [
        0.9832330942153931,
        0.26911094784736633,
        0.39997273683547974
      ],
      "min": [
        0.8921380639076233,
        -0.14860518276691437,
        -0.011852086521685123
      ],
      "type": "VEC3"
    },
    {
      "bufferView": 2,
      "byteOffset": 43248,
      "componentType": 5126,
      "count": 20,
      "max": [
        0.9937918782234192,
        0.0873488187789917,
        0.31125640869140625
      ],
      "min": [
        -0.9888294339179993,
        -0.1282397359609604,
        -0.27289149165153503
      ],
      "type": "VEC3"
    },
    {
      "bufferView": 3,
      "byteOffset": 28480,
      "componentType": 5126,
      "count": 20,
      "max": [
        -0.08324065059423447,
        -0.5312920212745667,
        0.8404958248138428,
        1.0
      ],
      "min": [
        -0.2862870991230011,
        -0.5365689992904663,
        0.7973509430885315,
        -1.0
      ],
      "type": "VEC4"
    },
    {
      "bufferView": 1,
      "byteOffset": 14336,
      "componentType": 5126,
      "count": 20,
      "max": [
        0.9122255444526672,
        0.37191537022590637
      ],
      "min": [
        0.8245052099227905,
        0.28284236788749695
      ],
      "type": "VEC2"
    },
    {
      "bufferView": 0,
      "byteOffset": 33144,
      "componentType": 5125,
      "count": 54,
      "type": "SCALAR"
    },
    {
      "bufferView": 2,
      "byteOffset": 43488,
      "componentType": 5126,
      "count": 200,
      "max": [
        0.49825575947761536,
        -0.3947676420211792,
        1.2524733543395996
      ],
      "min": [
        0.13212838768959045,
        -0.8125603795051575,
        0.6684818267822266
      ],
      "type": "VEC3"
    },
    {
      "bufferView": 2,
      "byteOffset": 45888,
      "componentType": 5126,
      "count": 200,
      "max": [
        0.9831537008285522,
        0.9982196688652039,
        0.9907447099685669
      ],
      "min": [
        -0.9806693196296692,
        -0.998239278793335,
        -0.9955573678016663
      ],
      "type": "VEC3"
    },
    {
      "bufferView": 3,
      "byteOffset": 28800,
      "componentType": 5126,
      "count": 200,
      "max": [
        0.946761965751648,
        0.9397799372673035,
        0.9830467104911804,
        1.0
      ],
      "min": [
        -0.9721542596817017,
        -0.9789814949035645,
        -0.6046067476272583,
        -1.0
      ],
      "type": "VEC4"
    },
    {
      "bufferView": 1,
      "byteOffset": 14496,
      "componentType": 5126,
      "count": 200,
      "max": [
        0.4672989845275879,
        0.9490314722061157
      ],
      "min": [
        0.2377423346042633,
        0.6389658451080322
      ],
      "type": "VEC2"
    },
    {
      "bufferView": 0,
      "byteOffset": 33360,
      "componentType": 5125,
      "count": 864,
      "type": "SCALAR"
    }
  ],
  "asset": {
    "extras": {
      "author": "Andrey Gulev (https://sketchfab.com/anefiga02)",
      "license": "CC-BY-4.0 (http://creativecommons.org/licenses/by/4.0/)",
      "source": "https://sketchfab.com/3d-models/ice-gun-63b73dcf59de461cb5a5a6adc8a557ff",
      "title": "Ice Gun"
    },
    "generator": "Sketchfab-12.65.0",
    "version": "2.0"
  },
  "bufferViews": [
    {
      "buffer": 0,
      "byteLength": 36816,
      "name": "floatBufferViews",
      "target": 34963
    },
    {
      "buffer": 0,
      "byteLength": 16096,
      "byteOffset": 36816,
      "byteStride": 8,
      "name": "floatBufferViews",
      "target": 34962
    },
    {
      "buffer": 0,
      "byteLength": 48288,
      "byteOffset": 52912,
      "byteStride": 12,
      "name": "floatBufferViews",
      "target": 34962
    },
    {
      "buffer": 0,
      "byteLength": 32000,
      "byteOffset": 101200,
      "byteStride": 16,
      "name": "floatBufferViews",
      "target": 34962
    }
  ],
  "buffers": [
    {
      "byteLength": 133200,
      "uri": "scene.bin"
    }
  ],
  "extensionsUsed": [
    "KHR_materials_transmission",
    "KHR_materials_clearcoat"
  ],
  "images": [
    {
      "uri": "textures/Pistol_baseColor.png"
    },
    {
      "uri": "textures/Pistol_metallicRoughness.png"
    },
    {
      "uri": "textures/Pistol_emissive.png"
    },
    {
      "uri": "textures/Pistol_normal.png"
    },
    {
      "uri": "textures/Pistol_transmission.png"
    },
    {
      "uri": "textures/Glass2_baseColor.png"
    },
    {
      "uri": "textures/Glass2_metallicRoughness.png"
    }
  ],
  "materials": [
    {
      "alphaMode": "BLEND",
      "doubleSided": true,
      "emissiveFactor": [
        1.0,
        1.0,
        1.0
      ],
      "emissiveTexture": {
        "index": 2
      },
      "extensions": {
        "KHR_materials_transmission": {
          "transmissionFactor": 1.0,
          "transmissionTexture": {
            "index": 4
          }
        }
      },
      "name": "Pistol",
      "normalTexture": {
        "index": 3
      },
      "occlusionTexture": {
        "index": 1
      },
      "pbrMetallicRoughness": {
        "baseColorTexture": {
          "index": 0
        },
        "metallicRoughnessTexture": {
          "index": 1
        }
      }
    },
    {
      "alphaMode": "BLEND",
      "doubleSided": true,
      "emissiveFactor": [
        1.0,
        1.0,
        1.0
      ],
      "emissiveTexture": {
        "index": 2
      },
      "name": "Light",
      "pbrMetallicRoughness": {
        "baseColorTexture": {
          "index": 0
        },
        "roughnessFactor": 0.0
      }
    },
    {
      "alphaMode": "BLEND",
      "doubleSided": true,
      "extensions": {
        "KHR_materials_clearcoat": {
          "clearcoatFactor": 1.0,
          "clearcoatRoughnessFactor": 0.04
        }
      },
      "name": "Glass2",
      "normalTexture": {
        "index": 3
      },
      "pbrMetallicRoughness": {
        "baseColorFactor": [
          1.0,
          1.0,
          1.0,
          0.2198863636
        ],
        "baseColorTexture": {
          "index": 5
        },
        "metallicRoughnessTexture": {
          "index": 6
        }
      }
    },
    {
      "alphaMode": "BLEND",
      "doubleSided": true,
      "extensions": {
        "KHR_materials_clearcoat": {
          "clearcoatFactor": 1.0,
          "clearcoatRoughnessFactor": 0.04
        },
        "KHR_materials_transmission": {
          "transmissionFactor": 1.0
        }
      },
      "name": "Glass1",
      "normalTexture": {
        "index": 3
      },
      "pbrMetallicRoughness": {
        "baseColorFactor": [
          1.0,
          1.0,
          1.0,
          0.25
        ],
        "baseColorTexture": {
          "index": 5
        },
        "metallicFactor": 0.0,
        "metallicRoughnessTexture": {
          "index": 6
        }
      }
    }
  ],
  "meshes": [
    {
      "name": "Sphere.020_Pistol_0",
      "primitives": [
        {
          "attributes": {
            "NORMAL": 1,
            "POSITION": 0,
            "TANGENT": 2,
            "TEXCOORD_0": 3
          },
          "indices": 4,
          "material": 0,
          "mode": 4
        }
      ]
    },
    {
      "name": "Sphere.020_Light_0",
      "primitives": [
        {
          "attributes": {
            "NORMAL": 6,
            "POSITION": 5,
            "TEXCOORD_0": 7
          },
          "indices": 8,
          "material": 1,
          "mode": 4
        }
      ]
    },
    {
      "name": "Sphere.020_Glass2_0",
      "primitives": [
        {
          "attributes": {
            "NORMAL": 10,
            "POSITION": 9,
            "TANGENT": 11,
            "TEXCOORD_0": 12
          },
          "indices": 13,
          "material": 2,
          "mode": 4
        }
      ]
    },
    {
      "name": "Sphere.020_Glass1_0",
      "primitives": [
        {
          "attributes": {
            "NORMAL": 15,
            "POSITION": 14,
            "TANGENT": 16,
            "TEXCOORD_0": 17
          },
          "indices": 18,
          "material": 3,
          "mode": 4
        }
      ]
    }
  ],
  "nodes": [
    {
      "children": [
        1
      ],
      "matrix": [
        1.0,
        0.0,
        0.0,
        0.0,
        0.0,
        2.220446049250313e-16,
        -1.0,
        0.0,
        0.0,
        1.0,
        2.220446049250313e-16,
        0.0,
        0.0,
        0.0,
        0.0,
        1.0
      ],
      "name": "Sketchfab_model"
    },
    {
      "children": [
        2
      ],
      "matrix": [
        1.0,
        0.0,
        0.0,
        0.0,
        0.0,
        0.0,
        1.0,
        0.0,
        0.0,
        -1.0,
        0.0,
        0.0,
        0.0,
        0.0,
        0.0,
        1.0
      ],
      "name": "66194cad4e5c41d3b751e10209337904.fbx"
    },
    {
      "children": [
        3
      ],
      "name": "RootNode"
    },
    {
      "children": [
        4,
        5,
        6,
        7
      ],
      "matrix": [
        99.92664338483453,
        -2.7833582427330663,
        2.6303723562861716,
        0.0,
        1.770409940894273,
        -27.32998413037786,
        -96.1765959892243,
        0.0,
        3.395819559589011,
        96.15261246750346,
        -27.2606589280745,
        0.0,
        -8.298185348510742,
        -1.5423893928527832,
        -22.032577514648438,
        1.0
      ],
      "name": "Sphere.020"
    },
    {
      "mesh": 0,
      "name": "Sphere.020_Pistol_0"
    },
    {
      "mesh": 1,
      "name": "Sphere.020_Light_0"
    },
    {
      "mesh": 2,
      "name": "Sphere.020_Glass2_0"
    },
    {
      "mesh": 3,
      "name": "Sphere.020_Glass1_0"
    }
  ],
  "samplers": [
    {
      "magFilter": 9729,
      "minFilter": 9987,
      "wrapS": 10497,
      "wrapT": 10497
    }
  ],
  "scene": 0,
  "scenes": [
    {
      "name": "Sketchfab_Scene",
      "nodes": [
        0
      ]
    }
  ],
  "textures": [
    {
      "sampler": 0,
      "source": 0
    },
    {
      "sampler": 0,
      "source": 1
    },
    {
      "sampler": 0,
      "source": 2
    },
    {
      "sampler": 0,
      "source": 3
    },
    {
      "sampler": 0,
      "source": 4
    },
    {
      "sampler": 0,
      "source": 5
    },
    {
      "sampler": 0,
      "source": 6
    }
  ]
}
