{
  "accessors": [
    {
      "bufferView": 2,
      "componentType": 5126,
      "count": 2357,
      "max": [
        6.328586101531982,
        1.7695038318634033,
        9.74949836730957
      ],
      "min": [
        -6.330057144165039,
        -1.2792434692382813,
        -8.330992698669434
      ],
      "type": "VEC3"
    },
    {
      "bufferView": 2,
      "byteOffset": 28284,
      "componentType": 5126,
      "count": 2357,
      "max": [
        0.9972541332244873,
        1.0,
        0.999333918094635
      ],
      "min": [
        -0.997324526309967,
        -1.0,
        -0.999828040599823
      ],
      "type": "VEC3"
    },
    {
      "bufferView": 3,
      "componentType": 5126,
      "count": 2357,
      "max": [
        1.0,
        0.9996164441108704,
        0.9999091029167175,
        1.0
      ],
      "min": [
        -1.0,
        -0.9976469874382019,
        -0.9999991655349731,
        -1.0
      ],
      "type": "VEC4"
    },
    {
      "bufferView": 1,
      "componentType": 5126,
      "count": 2357,
      "max": [
        1.9978078603744507,
        0.9952734112739563
      ],
      "min": [
        0.00844072550535202,
        0.00558906514197588
      ],
      "type": "VEC2"
    },
    {
      "bufferView": 1,
      "byteOffset": 18856,
      "componentType": 5126,
      "count": 2357,
      "max": [
        1.9978078603744507,
        0.9952734112739563
      ],
      "min": [
        0.00844072550535202,
        0.00558906514197588
      ],
      "type": "VEC2"
    },
    {
      "bufferView": 0,
      "componentType": 5125,
      "count": 11208,
      "type": "SCALAR"
    }
  ],
  "asset": {
    "extras": {
      "author": "d333p (https://sketchfab.com/d333p)",
      "license": "CC-BY-4.0 (http://creativecommons.org/licenses/by/4.0/)",
      "source": "https://sketchfab.com/3d-models/game-ready-character-e321e805190748c6a94dbe11b97e3023",
      "title": "Game ready character"
    },
    "generator": "Sketchfab-12.68.0",
    "version": "2.0"
  },
  "bufferViews": [
    {
      "buffer": 0,
      "byteLength": 44832,
      "name": "floatBufferViews",
      "target": 34963
    },
    {
      "buffer": 0,
      "byteLength": 37712,
      "byteOffset": 44832,
      "byteStride": 8,
      "name": "floatBufferViews",
      "target": 34962
    },
    {
      "buffer": 0,
      "byteLength": 56568,
      "byteOffset": 82544,
      "byteStride": 12,
      "name": "floatBufferViews",
      "target": 34962
    },
    {
      "buffer": 0,
      "byteLength": 37712,
      "byteOffset": 139112,
      "byteStride": 16,
      "name": "floatBufferViews",
      "target": 34962
    }
  ],
  "buffers": [
    {
      "byteLength": 176824,
      "uri": "scene.bin"
    }
  ],
  "images": [
    {
      "uri": "textures/Rupert_main.001_baseColor.jpeg"
    },
    {
      "uri": "textures/Rupert_main.001_normal.jpeg"
    }
  ],
  "materials": [
    {
      "doubleSided": true,
      "name": "Rupert_main.001",
      "normalTexture": {
        "index": 1
      },
      "pbrMetallicRoughness": {
        "baseColorTexture": {
          "index": 0
        },
        "metallicFactor": 0.0
      }
    }
  ],
  "meshes": [
    {
      "name": "Rupert.001_Rupert_main.001_0",
      "primitives": [
        {
          "attributes": {
            "NORMAL": 1,
            "POSITION": 0,
            "TANGENT": 2,
            "TEXCOORD_0": 3,
            "TEXCOORD_1": 4
          },
          "indices": 5,
          "material": 0,
          "mode": 4
        }
      ]
    }
  ],
  "nodes": [
    {
      "children": [
        1
      ],
      "matrix": [
        1.0,
        0.0,
        0.0,
        0.0,
        0.0,
        2.220446049250313e-16,
        -1.0,
        0.0,
        0.0,
        1.0,
        2.220446049250313e-16,
        0.0,
        0.0,
        0.0,
        0.0,
        1.0
      ],
      "name": "Sketchfab_model"
    },
    {
      "children": [
        2
      ],
      "matrix": [
        1.0,
        0.0,
        0.0,
        0.0,
        0.0,
        0.0,
        1.0,
        0.0,
        0.0,
        -1.0,
        0.0,
        0.0,
        0.0,
        0.0,
        0.0,
        1.0
      ],
      "name": "g_r_character.fbx"
    },
    {
      "children": [
        3
      ],
      "name": "RootNode"
    },
    {
      "children": [
        4
      ],
      "matrix": [
        100.0,
        0.0,
        0.0,
        0.0,
        0.0,
        -1.629206793918314e-05,
        -99.99999999999868,
        0.0,
        0.0,
        99.99999999999868,
        -1.629206793918314e-05,
        0.0,
        0.0,
        0.0,
        0.0,
        1.0
      ],
      "name": "Rupert.001"
    },
    {
      "mesh": 0,
      "name": "Rupert.001_Rupert_main.001_0"
    }
  ],
  "samplers": [
    {
      "magFilter": 9729,
      "minFilter": 9987,
      "wrapS": 10497,
      "wrapT": 10497
    }
  ],
  "scene": 0,
  "scenes": [
    {
      "name": "Sketchfab_Scene",
      "nodes": [
        0
      ]
    }
  ],
  "textures": [
    {
      "sampler": 0,
      "source": 0
    },
    {
      "sampler": 0,
      "source": 1
    }
  ]
}
